<?xml version="1.0" standalone="no"?>
<!DOCTYPE svg PUBLIC "-//W3C//DTD SVG 20010904//EN"
 "http://www.w3.org/TR/2001/REC-SVG-20010904/DTD/svg10.dtd">
<svg version="1.0" xmlns="http://www.w3.org/2000/svg"
 width="360.000000pt" height="360.000000pt" viewBox="0 0 360.000000 360.000000"
 preserveAspectRatio="xMidYMid meet">

<g transform="translate(0.000000,360.000000) scale(0.100000,-0.100000)"
fill="#000000" stroke="none">
<path d="M1613 3433 c-18 -2 -33 -8 -33 -14 0 -5 -10 -9 -22 -9 -33 0 -14 -15
99 -77 54 -30 91 -52 82 -50 -145 45 -276 72 -224 48 31 -15 -2 -13 -38 2 -61
26 -106 29 -160 11 -107 -35 -180 -83 -129 -85 9 0 -1 -9 -24 -18 -22 -10 -48
-31 -58 -46 -18 -27 -18 -27 6 -20 12 4 57 25 98 45 83 43 151 64 160 51 3 -5
67 -7 143 -5 135 3 175 -8 79 -22 -46 -6 -126 -33 -120 -40 2 -2 22 3 43 11
44 16 200 20 191 6 -4 -5 -24 -12 -45 -16 -22 -4 -45 -13 -52 -21 -6 -8 -18
-14 -25 -14 -8 0 -14 -4 -14 -10 0 -5 -4 -10 -9 -10 -15 0 -113 -94 -128 -124
-22 -42 -93 -130 -93 -115 0 7 -10 -1 -22 -18 -13 -16 -27 -31 -33 -33 -5 -1
-21 -6 -34 -11 -23 -9 -23 -8 -18 26 3 19 3 35 -1 35 -4 0 -20 -21 -36 -46
-25 -39 -31 -44 -36 -28 -6 17 -8 16 -22 -6 -9 -14 -23 -38 -32 -55 -8 -16
-15 -27 -16 -24 0 14 31 80 58 121 29 42 58 115 54 131 -1 4 5 15 13 24 9 8
14 17 11 20 -8 8 -130 -30 -161 -50 -101 -68 -122 -110 -141 -285 -15 -134
-37 -217 -56 -206 -11 7 -78 -26 -78 -38 0 -19 -2 -23 -16 -31 -8 -5 -11 -13
-8 -19 4 -6 0 -14 -7 -19 -31 -19 28 -8 77 15 69 32 145 105 180 172 16 30 30
50 32 44 2 -5 8 -8 13 -4 24 14 -9 -50 -61 -121 -20 -27 -37 -61 -38 -74 0
-13 -7 -28 -14 -32 -10 -7 -10 -9 2 -9 8 0 0 -10 -17 -21 -18 -12 -33 -26 -33
-32 0 -6 -3 -8 -6 -4 -4 3 -20 -1 -36 -9 -17 -9 -27 -18 -24 -21 3 -4 1 -12
-5 -19 -8 -10 -5 -11 13 -7 l23 6 -24 -26 c-13 -15 -20 -31 -16 -38 5 -7 -1
-18 -14 -28 -33 -25 -37 -82 -11 -171 11 -41 25 -90 30 -108 4 -19 16 -42 26
-53 23 -26 3 -24 -31 3 -24 19 -26 19 -15 2 7 -10 32 -35 57 -54 24 -19 52
-42 63 -50 17 -13 15 -18 -40 -80 -65 -74 -80 -98 -80 -133 0 -28 48 -76 97
-96 17 -7 35 -23 41 -37 14 -30 28 -31 37 -3 7 21 7 21 23 -3 9 -12 23 -28 32
-35 22 -17 20 -33 -12 -77 -27 -39 -38 -99 -20 -110 5 -3 61 5 125 17 85 16
117 26 120 38 2 9 25 21 50 28 53 15 72 33 82 78 6 31 49 83 68 83 6 0 6 -4
-1 -12 -29 -37 -16 -202 22 -277 31 -63 78 -113 98 -106 14 6 13 13 -8 61 -13
30 -33 101 -45 159 l-21 105 21 62 c15 45 21 87 21 153 l0 92 -77 64 c-96 79
-147 146 -173 225 -19 57 -22 60 -49 56 -22 -3 -32 2 -48 25 -33 46 -34 51
-15 49 13 -1 16 5 14 24 -3 20 -1 23 9 13 7 -7 19 -13 27 -13 15 0 14 21 -5
145 -5 35 -4 38 9 28 8 -7 20 -32 27 -55 35 -117 115 -182 246 -200 75 -11
153 5 147 30 -1 7 10 18 24 24 37 17 72 93 66 141 l-4 38 38 -7 c60 -10 69
-19 92 -81 15 -41 31 -64 54 -80 51 -33 123 -53 192 -53 35 0 77 -3 94 -6 28
-6 30 -8 19 -31 -16 -36 -79 -66 -112 -53 -55 21 -120 6 -114 -26 7 -41 -27
-51 -204 -60 -134 -6 -145 -5 -185 15 -28 14 -42 28 -42 41 0 16 -7 20 -34 20
-36 0 -66 -21 -66 -46 0 -12 12 -15 53 -13 36 1 64 -5 93 -19 52 -27 114 -41
179 -42 28 -1 58 -5 68 -9 17 -6 17 -8 -5 -18 -50 -23 -80 -33 -101 -33 l-22
-1 23 -19 c33 -27 122 -36 163 -16 18 9 42 16 54 16 13 0 26 8 29 17 4 10 4
14 0 10 -12 -12 -33 13 -27 31 15 38 130 111 154 97 24 -16 -35 -94 -72 -95
-21 0 -36 -18 -45 -54 -6 -26 -5 -27 14 -17 11 6 30 11 41 11 33 0 91 37 91
59 0 5 5 13 12 17 6 4 8 3 4 -4 -3 -6 -3 -13 2 -16 5 -3 9 1 9 9 0 7 16 45 36
83 20 39 37 78 37 88 1 29 27 57 45 50 19 -7 16 -22 -23 -110 -32 -72 -80
-132 -169 -209 -111 -95 -218 -159 -211 -125 3 14 3 14 -104 -3 -57 -10 -76
-9 -117 5 -27 9 -53 16 -56 16 -14 0 9 -22 48 -47 22 -14 58 -42 80 -62 48
-44 137 -168 137 -190 0 -26 29 -131 46 -167 12 -24 24 -34 50 -38 19 -4 34
-11 34 -15 0 -5 7 -11 15 -15 22 -8 37 29 45 112 9 92 22 108 56 67 46 -56 84
-118 84 -137 0 -11 -4 -17 -8 -14 -5 3 -28 -13 -53 -36 -24 -22 -96 -79 -159
-126 -115 -85 -203 -168 -195 -183 5 -8 44 1 124 29 43 15 57 25 73 55 10 20
20 37 23 37 5 0 -7 -27 -75 -164 -46 -93 -55 -119 -58 -177 l-4 -67 -41 -6
c-48 -8 -67 -21 -67 -47 0 -23 7 -24 27 -3 9 8 27 14 42 12 24 -3 26 -6 24
-47 -1 -24 -7 -49 -13 -55 -5 -5 -10 -26 -10 -45 0 -22 -3 -31 -8 -24 -13 21
-37 -66 -56 -204 l-6 -43 162 1 c90 0 157 3 149 6 -16 7 -66 62 -99 110 -37
55 -63 141 -61 208 0 33 0 92 0 131 l-2 72 61 81 c49 66 65 81 87 82 26 1 27
1 5 7 -31 9 -30 18 9 79 48 75 100 92 113 38 3 -13 17 -35 29 -49 l24 -25 16
35 c10 20 15 45 11 59 -5 22 -4 23 23 16 63 -17 27 -131 -41 -131 -16 0 -25
-4 -21 -10 4 -6 -19 -10 -63 -10 l-69 0 5 -31 c5 -32 35 -72 46 -62 3 4 6 -3
6 -14 0 -14 22 -39 64 -72 35 -28 67 -51 70 -51 18 0 0 31 -46 78 l-53 54 58
-5 c33 -3 86 -19 126 -37 61 -28 71 -37 91 -80 18 -39 20 -51 10 -70 -12 -23
-16 -152 -5 -170 7 -12 -26 -50 -144 -167 l-74 -73 238 2 c228 3 238 4 241 23
2 10 22 35 45 54 39 33 78 101 84 148 2 15 -3 24 -17 29 -15 4 -18 11 -13 27
3 12 7 28 7 35 1 6 6 13 12 14 6 0 16 2 21 3 6 2 16 3 23 4 6 0 12 12 12 26 0
15 7 28 18 32 9 3 33 13 52 21 34 15 34 16 10 20 -46 7 -43 20 11 49 30 15 57
29 62 31 4 2 7 -5 7 -15 1 -17 1 -17 15 1 17 23 20 40 5 31 -5 -3 -10 -1 -10
4 0 6 -9 11 -20 11 -23 0 -27 18 -6 26 23 9 39 60 31 101 -5 29 -24 54 -86
114 -43 42 -79 79 -79 82 0 2 14 4 30 3 19 0 32 -7 36 -19 8 -25 84 -111 84
-95 0 9 3 9 10 -2 16 -24 0 49 -21 98 -10 24 -32 56 -49 72 l-30 28 25 54 c29
63 31 88 8 131 -10 18 -18 39 -19 47 -1 8 -3 21 -5 29 -3 8 5 14 19 16 30 2
102 73 102 100 0 37 -82 113 -166 154 -84 41 -134 82 -134 112 0 10 22 41 49
69 63 65 84 110 89 187 6 82 -25 150 -104 228 -33 32 -51 55 -40 52 15 -6 17
-4 13 13 -4 17 -2 20 14 15 17 -6 19 -3 13 22 -4 15 -12 34 -18 42 -9 12 -6
13 16 9 23 -4 27 -1 30 24 3 16 -1 36 -8 46 -9 12 -9 20 -1 30 8 10 7 16 -2
22 -8 4 -11 12 -8 17 3 5 -15 17 -41 26 -26 10 -60 26 -77 37 -28 18 -28 20
-7 20 12 0 22 4 22 9 0 5 -10 16 -22 24 -18 13 -20 18 -10 25 11 7 1 20 -40
53 -149 122 -246 211 -251 230 -4 15 -2 19 8 15 20 -7 25 16 7 37 -15 17 -15
17 11 8 15 -6 39 -18 54 -28 l28 -17 -21 25 c-11 13 -30 35 -42 48 -12 14 -22
30 -22 35 0 6 -7 23 -14 39 -16 30 -14 32 15 17 13 -8 19 -7 19 0 0 6 5 8 10
5 23 -14 8 26 -15 41 -14 9 -22 20 -20 25 3 4 -4 13 -16 19 -33 18 -16 22 24
5 20 -8 40 -15 44 -15 9 0 -62 67 -96 90 -21 15 -31 37 -9 24 7 -4 8 -3 4 4
-10 16 -162 100 -200 110 -21 6 -30 14 -28 25 4 21 -36 22 -125 3 l-62 -13
-26 38 c-19 29 -32 39 -51 39 -15 0 -41 9 -59 20 -18 11 -46 20 -62 19 -15 -1
-41 3 -56 10 -28 11 -60 12 -124 4z m-109 -385 c-28 -29 -69 -78 -91 -108 -56
-77 -84 -99 -52 -41 23 41 171 201 186 201 4 0 -16 -24 -43 -52z m732 27 c21
-8 35 -17 33 -19 -9 -8 -170 30 -162 38 11 11 83 0 129 -19z m-88 -102 c-15
-2 -42 -2 -60 0 -18 2 -6 4 27 4 33 0 48 -2 33 -4z m-106 -88 c108 -63 164
-145 172 -252 l4 -50 -102 1 c-78 1 -113 -4 -154 -19 -58 -21 -81 -47 -62 -70
9 -10 7 -22 -6 -47 -10 -18 -22 -60 -28 -93 l-11 -60 -58 -3 c-57 -3 -58 -2
-117 49 -33 29 -60 57 -60 64 0 6 -13 26 -30 45 -16 18 -28 35 -27 37 2 1 24
3 50 4 93 4 87 34 -16 69 -50 17 -73 31 -75 43 -2 11 10 47 27 82 35 70 143
180 189 191 15 4 36 13 48 21 19 12 103 29 159 32 11 0 55 -20 97 -44z m-962
-182 c-11 -17 -11 -17 -6 0 3 10 6 24 7 30 0 9 2 9 5 0 3 -7 0 -20 -6 -30z
m1102 -350 c26 -23 22 -50 -10 -67 l-27 -14 0 49 c0 52 8 59 37 32z m-727 -43
c0 -27 -2 -50 -5 -50 -16 0 -50 34 -50 50 0 16 34 50 50 50 3 0 5 -22 5 -50z
m595 40 c0 -5 -4 -10 -10 -10 -5 0 -10 5 -10 10 0 6 5 10 10 10 6 0 10 -4 10
-10z m-540 -10 c0 -5 -4 -10 -10 -10 -5 0 -10 5 -10 10 0 6 5 10 10 10 6 0 10
-4 10 -10z m486 -15 c3 -40 31 -75 62 -77 15 0 32 -2 37 -3 6 -2 18 -3 29 -4
15 -1 16 -4 6 -16 -22 -26 42 -18 84 10 43 29 66 32 67 8 6 -84 -14 -111 -107
-142 -127 -42 -211 -21 -253 62 l-23 48 22 19 c12 11 31 22 41 25 14 5 17 11
10 22 -9 17 5 73 17 73 4 0 8 -11 8 -25z m-300 -37 c21 -40 14 -120 -13 -156
-39 -53 -80 -72 -153 -72 -133 0 -214 53 -244 159 -17 62 -21 101 -8 101 4 0
32 -23 62 -51 l55 -51 59 6 c32 3 68 6 80 6 31 1 56 24 71 67 l13 38 11 -29
c9 -21 8 -32 -1 -43 -10 -13 -9 -15 7 -11 20 4 22 17 11 63 -6 24 -5 25 14 15
11 -6 27 -25 36 -42z m-868 -206 c9 9 12 4 12 -24 0 -67 -11 -75 -32 -22 -21
57 -25 108 -4 62 9 -22 15 -25 24 -16z m1436 -3 c-14 -29 -18 -30 -64 -27 -64
5 -71 14 -24 28 22 6 50 17 64 24 34 20 43 10 24 -25z m606 -197 c0 -42 -39
-103 -76 -118 -20 -8 -32 -19 -28 -25 7 -12 -48 -74 -81 -91 -19 -11 -19 -10
-2 9 9 11 17 24 17 30 0 5 10 18 22 29 30 27 114 157 122 190 6 22 9 25 17 13
5 -7 9 -24 9 -37z m-1770 -302 c18 -23 29 -44 25 -48 -7 -8 -75 62 -75 78 0
20 19 9 50 -30z m1675 -125 c50 -49 71 -63 106 -70 67 -15 91 -44 69 -86 -13
-23 -34 -21 -105 10 -34 15 -43 26 -53 59 -7 23 -32 63 -56 89 -35 38 -42 51
-33 62 9 11 14 9 26 -10 9 -13 29 -37 46 -54z m64 -21 c14 -12 -19 -1 -35 12
-18 14 -18 14 6 3 14 -6 27 -13 29 -15z m213 -94 c-2 -24 -66 -99 -76 -89 -3
2 -1 20 3 40 4 19 4 45 0 58 -8 21 -7 22 34 19 38 -3 42 -5 39 -28z m49 -23
c-10 -9 -11 -8 -5 6 3 10 9 15 12 12 3 -3 0 -11 -7 -18z m-2011 -93 c0 -8 -7
-14 -15 -14 -15 0 -21 21 -9 33 10 9 24 -2 24 -19z m1775 -44 c-3 -5 -10 -10
-16 -10 -5 0 -9 5 -9 10 0 6 7 10 16 10 8 0 12 -4 9 -10z m-146 -42 c12 -35 9
-43 -14 -35 -16 7 -22 67 -6 67 5 0 14 -14 20 -32z m191 -2 c0 -14 -41 -46
-60 -46 -18 0 -11 28 12 44 28 20 48 20 48 2z m-225 -31 c16 -15 25 -35 25
-55 l0 -32 -25 30 c-14 17 -25 36 -25 44 0 8 -5 19 -12 26 -9 9 -9 12 0 12 7
0 24 -11 37 -25z m-361 -92 c-7 -30 -24 -56 -31 -49 -5 5 27 76 33 76 3 0 1
-12 -2 -27z m-115 -137 c-9 -8 -10 -7 -5 7 3 10 7 40 8 65 l2 47 3 -54 c3 -34
0 -58 -8 -65z m771 49 c10 -12 10 -15 -4 -15 -9 0 -16 7 -16 15 0 8 2 15 4 15
2 0 9 -7 16 -15z m67 -74 c8 -18 12 -35 9 -38 -2 -2 -7 6 -11 19 -4 13 -17 37
-28 53 -19 26 -19 28 -3 15 11 -8 25 -30 33 -49z m-603 -13 c22 -32 20 -48 -7
-48 -19 0 -23 6 -25 35 -3 40 10 45 32 13z m591 -235 c-10 -42 -18 -18 -9 29
6 32 9 37 12 19 2 -12 1 -34 -3 -48z m-45 -73 c-14 -10 -33 -21 -43 -24 -22
-6 -17 1 20 25 38 24 54 23 23 -1z m-50 -86 c0 -9 -5 -14 -12 -12 -18 6 -21
28 -4 28 9 0 16 -7 16 -16z m-433 -66 c-3 -7 -5 -2 -5 12 0 14 2 19 5 13 2 -7
2 -19 0 -25z"/>
<path d="M1458 3234 c-39 -21 -35 -28 5 -8 37 19 44 24 31 24 -5 -1 -21 -8
-36 -16z"/>
<path d="M1116 3145 c-33 -22 -64 -49 -70 -60 -6 -10 -21 -36 -33 -57 -30 -49
-29 -57 4 -27 14 13 22 17 18 9 -5 -8 11 -2 38 13 76 45 140 74 176 82 21 4
29 10 22 15 -8 4 -2 11 18 19 17 6 45 16 61 22 43 16 37 28 -10 19 -22 -4 -38
-4 -35 0 2 4 -26 6 -63 6 -61 -1 -72 -5 -126 -41z m84 31 c0 -2 -7 -7 -16 -10
-8 -3 -12 -2 -9 4 6 10 25 14 25 6z"/>
<path d="M831 2657 c-11 -13 -21 -26 -21 -30 0 -11 49 15 54 29 9 24 -10 24
-33 1z"/>
<path d="M818 2563 c-10 -2 -18 -8 -18 -12 0 -10 59 -1 66 10 5 9 -18 10 -48
2z"/>
<path d="M830 2525 c-14 -8 -20 -14 -14 -15 5 0 19 7 30 15 24 18 16 19 -16 0z"/>
<path d="M1751 2234 c0 -11 3 -14 6 -6 3 7 2 16 -1 19 -3 4 -6 -2 -5 -13z"/>
<path d="M1835 1985 c-16 -8 -47 -14 -67 -15 -21 0 -38 -5 -38 -11 0 -8 12
-10 35 -6 30 5 35 3 35 -13 0 -22 37 -35 73 -26 32 8 62 72 35 73 -7 0 -20 3
-28 6 -8 3 -28 -1 -45 -8z"/>
<path d="M1360 1141 c-5 -11 -10 -45 -10 -76 0 -56 1 -58 58 -117 58 -60 59
-61 93 -48 32 11 34 15 32 51 -1 30 1 38 11 32 25 -15 118 -135 158 -203 36
-62 55 -86 62 -79 4 3 0 19 -9 35 -8 16 -15 37 -15 47 0 9 -62 81 -139 160
-76 78 -153 159 -171 180 -36 41 -54 46 -70 18z"/>
<path d="M1050 778 c-14 -24 -20 -51 -20 -98 0 -71 -10 -96 -33 -87 -36 14
-53 -72 -31 -163 15 -64 11 -90 -14 -90 -13 0 -12 -4 4 -23 54 -60 65 -98 38
-128 -14 -16 -15 -26 -4 -83 6 -35 9 -74 5 -85 -6 -19 -2 -21 38 -21 l44 0 2
52 c2 58 11 80 11 27 0 -53 10 -79 31 -79 23 0 23 2 3 65 -41 130 -54 205 -48
278 4 48 0 103 -11 167 -29 155 -30 224 -6 265 11 19 18 35 16 35 -3 0 -14
-15 -25 -32z"/>
<path d="M1605 730 c28 -12 37 -12 30 0 -3 6 -16 10 -28 9 -21 0 -21 -1 -2 -9z"/>
<path d="M1841 689 c6 -11 9 -45 7 -75 -1 -30 0 -54 5 -54 4 0 7 34 7 75 0 61
-3 75 -15 75 -13 0 -14 -4 -4 -21z"/>
<path d="M1811 646 c-8 -9 -11 -19 -7 -23 9 -9 29 13 24 27 -2 8 -8 7 -17 -4z"/>
<path d="M2141 520 c0 -8 4 -22 9 -30 12 -18 12 -2 0 25 -6 13 -9 15 -9 5z"/>
<path d="M2177 449 c12 -12 25 -20 28 -17 3 3 -7 13 -22 23 l-28 17 22 -23z"/>
<path d="M2228 423 c7 -3 16 -2 19 1 4 3 -2 6 -13 5 -11 0 -14 -3 -6 -6z"/>
<path d="M1731 107 c-8 -20 -23 -39 -33 -43 -10 -3 -18 -11 -18 -19 0 -7 -7
-15 -15 -19 -34 -13 -12 -26 45 -26 l60 0 0 39 c0 21 2 54 5 72 l5 34 -14 -30
-14 -30 -4 30 -3 29 -14 -37z"/>
</g>
</svg>
